<svg xmlns="http://www.w3.org/2000/svg" width="128" height="26" viewBox="0 0 128 26">
  <defs>
    <linearGradient id="apple-a" x1="50%" x2="50%" y1="0%" y2="100%">
      <stop offset="0%" stop-color="#F452FF"/>
      <stop offset="100%" stop-color="#832BC1"/>
    </linearGradient>
  </defs>
  <g fill="none" fill-rule="evenodd">
    <path fill="url(#apple-a)" d="M25.1821,22.2281 C24.9375,22.8494 24.3731,23.7242 23.5727,24.3404 C23.1106,24.6963 22.5589,25.0365 21.8011,25.261 C20.9933,25.5004 19.9983,25.5813 18.7599,25.5813 L7.4366,25.5813 C6.1983,25.5813 5.2033,25.5004 4.3954,25.261 C3.6376,25.0365 3.086,24.6963 2.6238,24.3404 C1.8235,23.7241 1.259,22.8494 1.0144,22.2281 C0.5217,20.9763 0.5167,19.556 0.5167,18.6615 L0.5167,18.6615 L0.5167,7.3381 L0.5167,7.3381 C0.5167,6.4436 0.5217,5.0233 1.0144,3.7715 C1.259,3.1502 1.8234,2.2754 2.6238,1.6592 C3.0859,1.3033 3.6376,0.9631 4.3954,0.7386 C5.2032,0.4992 6.1982,0.4183 7.4366,0.4183 L7.4366,0.4183 L18.76,0.4183 L18.76,0.4183 C19.9983,0.4183 20.9933,0.4992 21.8012,0.7386 C22.559,0.9631 23.1106,1.3034 23.5728,1.6592 C24.3731,2.2755 24.9376,3.1502 25.1822,3.7715 C25.6749,5.0233 25.6799,6.4436 25.6799,7.3381 L25.6799,18.6615 C25.6799,19.5559 25.6748,20.9762 25.1821,22.2281 Z"/>
    <path d="M25.1821,22.2281 C24.9375,22.8494 24.3731,23.7242 23.5727,24.3404 C23.1106,24.6963 22.5589,25.0365 21.8011,25.261 C20.9933,25.5004 19.9983,25.5813 18.7599,25.5813 L7.4366,25.5813 C6.1983,25.5813 5.2033,25.5004 4.3954,25.261 C3.6376,25.0365 3.086,24.6963 2.6238,24.3404 C1.8235,23.7241 1.259,22.8494 1.0144,22.2281 C0.5217,20.9763 0.5167,19.556 0.5167,18.6615 L0.5167,18.6615 L0.5167,7.3381 L0.5167,7.3381 C0.5167,6.4436 0.5217,5.0233 1.0144,3.7715 C1.259,3.1502 1.8234,2.2754 2.6238,1.6592 C3.0859,1.3033 3.6376,0.9631 4.3954,0.7386 C5.2032,0.4992 6.1982,0.4183 7.4366,0.4183 L7.4366,0.4183 L18.76,0.4183 L18.76,0.4183 C19.9983,0.4183 20.9933,0.4992 21.8012,0.7386 C22.559,0.9631 23.1106,1.3034 23.5728,1.6592 C24.3731,2.2755 24.9376,3.1502 25.1822,3.7715 C25.6749,5.0233 25.6799,6.4436 25.6799,7.3381 L25.6799,18.6615 C25.6799,19.5559 25.6748,20.9762 25.1821,22.2281 Z"/>
    <path fill="#FFF" fill-rule="nonzero" d="M10.9232,11.8815 C10.5456,11.4831 9.8824,11.2277 9.0995,11.2277 C8.3165,11.2277 7.6533,11.4831 7.2757,11.8815 C7.0787,12.0894 6.9745,12.3025 6.9417,12.6061 C6.8781,13.194 6.9138,13.7002 6.9827,14.5095 C7.0483,15.2807 7.1729,16.3091 7.3355,17.3565 C7.4512,18.1019 7.5452,18.5042 7.6308,18.7923 C7.7696,19.2592 8.2883,19.6675 9.0995,19.6675 C9.9106,19.6675 10.4293,19.2591 10.5681,18.7923 C10.6537,18.5042 10.7477,18.1019 10.8634,17.3565 C11.026,16.3091 11.1506,15.2807 11.2162,14.5095 C11.2851,13.7001 11.3208,13.1939 11.2572,12.6061 C11.2244,12.3026 11.1202,12.0894 10.9232,11.8815 Z M7.0421,8.3342 C7.0421,9.4715 7.9641,10.3935 9.1014,10.3935 C10.2388,10.3935 11.1608,9.4715 11.1608,8.3342 C11.1608,7.1968 10.2388,6.2748 9.1014,6.2748 C7.9641,6.2748 7.0421,7.1968 7.0421,8.3342 Z M9.0759,0.207163131 C4.2596,0.2209 0.3131,4.1282 0.2535,8.9442 C0.2051,12.8455 2.6955,16.1827 6.173,17.4059 C6.2574,17.4356 6.3431,17.3655 6.3298,17.277 C6.2842,16.9741 6.2412,16.6697 6.2017,16.3704 C6.1877,16.2646 6.1203,16.1734 6.0226,16.1307 C3.274,14.9299 1.3547,12.1733 1.3855,8.9802 C1.4259,4.7898 4.8477,1.3736 9.0381,1.3397 C13.322,1.3051 16.8181,4.7799 16.8181,9.0559 C16.8181,12.217 14.9072,14.9398 12.18,16.131 C12.0823,16.1737 12.0153,16.2652 12.0014,16.3709 C11.9619,16.6701 11.9189,16.9744 11.8734,17.277 C11.86,17.3655 11.9457,17.4356 12.0301,17.406 C15.4744,16.1945 17.9503,12.9092 17.9503,9.056 C17.9501,4.1681 13.9668,0.1932 9.0759,0.207163131 Z M8.916,4.2667 C11.6463,4.161 13.9011,6.3514 13.9011,9.0586 C13.9011,10.4354 13.3178,11.6784 12.3855,12.5538 C12.3064,12.628 12.2639,12.7334 12.27,12.8417 C12.2886,13.171 12.2818,13.491 12.2599,13.8524 C12.254,13.9487 12.362,14.0102 12.4417,13.9559 C14.0051,12.8875 15.0334,11.091 15.0334,9.0586 C15.0334,5.7122 12.246,3.0045 8.8711,3.1353 C5.7347,3.2569 3.2184,5.8428 3.1782,8.9814 C3.1518,11.0456 4.1864,12.8743 5.7699,13.9561 C5.8494,14.0104 5.9571,13.9488 5.9512,13.8526 C5.9292,13.491 5.9225,13.171 5.941,12.8417 C5.9471,12.7335 5.9047,12.6281 5.8258,12.554 C4.8644,11.6514 4.274,10.3579 4.3116,8.9299 C4.3778,6.4169 6.4039,4.364 8.916,4.2667 Z" transform="translate(4 3)"/>
    <g fill="#FFF" fill-rule="nonzero" transform="translate(31 7)">
      <path d="M6.646925 8.08895294L2.82076 8.08895294 1.9019275 10.8530471.2813 10.8530471 3.90538167.625717647 5.58914.625717647 9.21322167 10.8530471 7.56494917 10.8530471 6.646925 8.08895294zM3.217005 6.81338824L6.24987167 6.81338824 4.75477833 2.32663529 4.71290667 2.32663529 3.217005 6.81338824zM17.03999 7.12542353C17.03999 9.44242353 15.8227208 10.9310353 13.9858642 10.9310353 12.9431142 10.9310353 12.1149767 10.4557765 11.6832458 9.62656471L11.6484875 9.62656471 11.6484875 13.3196 10.1462808 13.3196 10.1462808 3.39705882 11.6003108 3.39705882 11.6003108 4.63721176 11.6279558 4.63721176C12.0455408 3.83698824 12.9360008 3.31907059 13.9582192 3.31907059 15.8156075 3.31907059 17.03999 4.81492941 17.03999 7.12542353zM15.4959117 7.12542353C15.4959117 5.61589412 14.7301775 4.62345882 13.5618933 4.62345882 12.4141408 4.62345882 11.6421017 5.63681176 11.6421017 7.12542353 11.6421017 8.62770588 12.4141408 9.63381176 13.5618933 9.63381176 14.7302583 9.63381176 15.4959117 8.64870588 15.4959117 7.12542353zM25.09487 7.12542353C25.09487 9.44242353 23.8776008 10.9310353 22.0407442 10.9310353 20.9979942 10.9310353 20.1699375 10.4557765 19.7381258 9.62656471L19.7033675 9.62656471 19.7033675 13.3196 18.2011608 13.3196 18.2011608 3.39705882 19.6551908 3.39705882 19.6551908 4.63721176 19.6828358 4.63721176C20.1004208 3.83698824 20.9908808 3.31907059 22.0130992 3.31907059 23.8705683 3.31907059 25.09487 4.81492941 25.09487 7.12542353zM23.5508725 7.12542353C23.5508725 5.61589412 22.7851383 4.62345882 21.6168542 4.62345882 20.4691017 4.62345882 19.6970625 5.63681176 19.6970625 7.12542353 19.6970625 8.62770588 20.4691017 9.63381176 21.6168542 9.63381176 22.7851383 9.63381176 23.5508725 8.64870588 23.5508725 7.12542353z"/>
      <polygon points="26.311 .626 27.814 .626 27.814 10.853 26.311 10.853"/>
      <path d="M35.6356175 8.66311765C35.4335342 10.0166706 34.1397158 10.9455294 32.4844108 10.9455294 30.3554225 10.9455294 29.0339592 9.49232941 29.0339592 7.16083529 29.0339592 4.82217647 30.3625358 3.3054 32.4211992 3.3054 34.4459933 3.3054 35.71928 4.72244706 35.71928 6.98311765L35.71928 7.50745882 30.5503925 7.50745882 30.5503925 7.59994118C30.5503925 8.87542353 31.3366583 9.71188235 32.5190883 9.71188235 33.35345 9.71188235 34.0078767 9.30818824 34.2091517 8.6632L35.6356175 8.6632 35.6356175 8.66311765zM30.557425 6.43785882L34.216265 6.43785882C34.1815067 5.29669412 33.4647575 4.54547059 32.4211992 4.54547059 31.3847542 4.54547059 30.634055 5.31110588 30.557425 6.43785882zM43.7204867.625717647C45.6679233.625717647 47.0248725 1.99368235 47.0248725 3.9858 47.0248725 5.98434118 45.6402783 7.35872941 43.6715825 7.35872941L41.5149492 7.35872941 41.5149492 10.8531294 39.956725 10.8531294 39.956725.625717647 43.7204867.625717647zM41.5149492 6.02691765L43.3029017 6.02691765C44.6590425 6.02691765 45.4310817 5.2822 45.4310817 3.99304706 45.4310817 2.70307059 44.6590425 1.96518824 43.310015 1.96518824L41.5149492 1.96518824 41.5149492 6.02691765 41.5149492 6.02691765zM47.5734883 7.12542353C47.5734883 4.77951765 48.9296292 3.30531765 51.0443908 3.30531765 53.1662658 3.30531765 54.5161017 4.77943529 54.5161017 7.12542353 54.5161017 9.47775294 53.1733792 10.9455294 51.0443908 10.9455294 48.9162108 10.9455294 47.5734883 9.47783529 47.5734883 7.12542353zM52.9855225 7.12542353C52.9855225 5.51616471 52.26166 4.56638824 51.0443908 4.56638824 49.8271217 4.56638824 49.1032592 5.52341176 49.1032592 7.12542353 49.1032592 8.74110588 49.8271217 9.68363529 51.0443908 9.68363529 52.26166 9.68363529 52.9855225 8.74118824 52.9855225 7.12542353zM55.570815 7.12542353C55.570815 4.82209412 56.8156483 3.31898824 58.6312458 3.31898824 59.6819175 3.31898824 60.5099742 3.81516471 60.9267508 4.63712941L60.9552042 4.63712941 60.9552042.625635294 62.4645242.625635294 62.4645242 10.8529647 61.0033808 10.8529647 61.0033808 9.58472941 60.9757358 9.58472941C60.5447325 10.4347765 59.7095625 10.9310353 58.6454725 10.9310353 56.8156483 10.9310353 55.570815 9.42875294 55.570815 7.12542353zM57.1076992 7.12542353C57.1076992 8.65587059 57.8734333 9.63381176 59.0417175 9.63381176 60.1965833 9.63381176 60.9686225 8.64137647 60.9686225 7.12542353 60.9686225 5.62231765 60.1965833 4.62345882 59.0417175 4.62345882 57.8734333 4.62354118 57.1076992 5.60864706 57.1076992 7.12542353zM68.8569858 5.96251765C68.7251467 5.17596471 68.119705 4.58812941 67.1321642 4.58812941 65.9772983 4.58812941 65.2115642 5.57331765 65.2115642 7.12550588 65.2115642 8.71302353 65.9844117 9.66930588 67.1455825 9.66930588 68.0778333 9.66930588 68.6903883 9.19478824 68.8569858 8.33024706L70.3039025 8.33024706C70.137305 9.89610588 68.90589 10.9456118 67.1321642 10.9456118 65.0450475 10.9456118 63.6817125 9.49241176 63.6817125 7.12550588 63.6817125 4.80768235 65.0449667 3.3054 67.1179375 3.3054 68.9958575 3.3054 70.16495 4.51014118 70.2904842 5.9626L68.8569858 5.9626 68.8569858 5.96251765zM71.2243517 8.73394118C71.2243517 7.43029412 72.2047792 6.64291765 73.9438275 6.53676471L75.9472817 6.42336471 75.9472817 5.85636471C75.9472817 5.02723529 75.4120842 4.55914118 74.5010925 4.55914118 73.6659225 4.55914118 73.08174 4.96365882 72.9634 5.60864706L71.5582742 5.60864706C71.6001458 4.2616 72.8307525 3.30531765 74.5421558 3.30531765 76.2883175 3.30531765 77.4431833 4.27601176 77.4431833 5.74296471L77.4431833 10.8530471 76.00338 10.8530471 76.00338 9.62656471 75.9686217 9.62656471C75.5439233 10.4556941 74.6187858 10.9808588 73.65889 10.9808588 72.2261192 10.9809412 71.2243517 10.0737412 71.2243517 8.73394118zM75.9472817 8.06078824L75.9472817 7.48654118 74.1459108 7.59994118C73.2483375 7.65701176 72.740785 8.05354118 72.740785 8.69128235 72.740785 9.34351765 73.2696775 9.76895294 74.076475 9.76895294 75.1270658 9.76895294 75.9472817 9.03148235 75.9472817 8.06078824zM81.6364125 3.31264706C83.2578483 3.31264706 84.4190192 4.22627059 84.4537775 5.54441176L83.0415383 5.54441176C82.9792158 4.88575294 82.4297917 4.48205882 81.5946217 4.48205882 80.7807917 4.48205882 80.2384808 4.86409412 80.2384808 5.44550588 80.2384808 5.89185882 80.6000483 6.1894 81.3585883 6.38078824L82.5900033 6.67190588C84.064565 7.03302353 84.6211025 7.58552941 84.6211025 8.67761176 84.6211025 10.0239176 83.3691558 10.9455294 81.5812033 10.9455294 79.8555733 10.9455294 78.6944025 10.0447529 78.583095 8.68403529L80.071075 8.68403529C80.1760775 9.39976471 80.73892 9.78262353 81.6506392 9.78262353 82.5482125 9.78262353 83.1117825 9.40701176 83.1117825 8.81192941 83.1117825 8.35108235 82.83315 8.10336471 82.0682242 7.90472941L80.7601792 7.57902353C79.4379883 7.25249412 78.7701433 6.56492941 78.7701433 5.53065882 78.7701433 4.21251765 79.9321225 3.31264706 81.6364125 3.31264706zM87.8851525 1.63215294L87.8851525 3.39705882 89.27686 3.39705882 89.27686 4.60904706 87.8851525 4.60904706 87.8851525 8.71944706C87.8851525 9.35801176 88.163785 9.65555294 88.7756125 9.65555294 88.9287917 9.65555294 89.1726658 9.63381176 89.2697467 9.62014118L89.2697467 10.8248824C89.1031492 10.8675412 88.7693075 10.8956235 88.435385 10.8956235 86.95371 10.8956235 86.3758325 10.3286235 86.3758325 8.88267059L86.3758325 4.60896471 85.3117425 4.60896471 85.3117425 3.39705882 86.3758325 3.39705882 86.3758325 1.63215294 87.8851525 1.63215294zM93.3161825 3.31264706C94.9376183 3.31264706 96.0987892 4.22627059 96.1335475 5.54441176L94.7213083 5.54441176C94.6589858 4.88575294 94.1095617 4.48205882 93.2743917 4.48205882 92.4605617 4.48205882 91.9182508 4.86409412 91.9182508 5.44550588 91.9182508 5.89185882 92.2798183 6.1894 93.0383583 6.38078824L94.2697733 6.67190588C95.744335 7.03302353 96.3008725 7.58552941 96.3008725 8.67761176 96.3008725 10.0239176 95.0489258 10.9455294 93.2609733 10.9455294 91.5353433 10.9455294 90.3741725 10.0447529 90.262865 8.68403529L91.750845 8.68403529C91.8558475 9.39976471 92.41869 9.78262353 93.3304092 9.78262353 94.2279825 9.78262353 94.7915525 9.40701176 94.7915525 8.81192941 94.7915525 8.35108235 94.51292 8.10336471 93.7479942 7.90472941L92.4399492 7.57902353C91.1177583 7.25249412 90.4499133 6.56492941 90.4499133 5.53065882 90.4499133 4.21251765 91.6118925 3.31264706 93.3161825 3.31264706z"/>
    </g>
  </g>
</svg>
