<svg xmlns="http://www.w3.org/2000/svg" width="129" height="22" viewBox="0 0 129 22">
  <g fill="none" fill-rule="evenodd">
    <g fill-rule="nonzero">
      <polygon fill="#FAB908" points="9.625 7 9.625 10.334 9.625 11.666 9.625 15 12.375 15 12.375 11.666 12.375 10.334 12.375 7"/>
      <circle cx="1.375" cy="10.25" r="1.375" fill="#0066D9"/>
      <circle cx="1.375" cy="11.75" r="1.375" fill="#0066D9"/>
      <rect width="2.75" height="1.5" y="10.25" fill="#0066D9"/>
      <circle cx="20.625" cy="11.75" r="1.375" fill="#4285F4"/>
      <circle cx="20.625" cy="10.25" r="1.375" fill="#4285F4"/>
      <rect width="2.75" height="1.5" x="19.25" y="10.25" fill="#4285F4" transform="rotate(180 20.625 11)"/>
      <circle cx="6.125" cy="14.75" r="1.375" fill="#EA4335"/>
      <circle cx="6.125" cy="16.25" r="1.375" fill="#EA4335"/>
      <rect width="2.75" height="1.5" x="4.75" y="14.75" fill="#EA4335"/>
      <circle cx="6.125" cy="5.75" r="1.375" fill="#EA4335"/>
      <circle cx="6.125" cy="10.625" r="1.375" fill="#EA4335"/>
      <rect width="2.75" height="4.906" x="4.75" y="5.75" fill="#EA4335"/>
      <circle cx="15.875" cy="7.25" r="1.375" fill="#34A853"/>
      <circle cx="15.875" cy="5.75" r="1.375" fill="#34A853"/>
      <rect width="2.75" height="1.5" x="14.5" y="5.75" fill="#34A853" transform="rotate(180 15.875 6.5)"/>
      <circle cx="11" cy="2.875" r="1.375" fill="#FAB908"/>
      <circle cx="11" cy="1.375" r="1.375" fill="#FAB908"/>
      <rect width="2.75" height="1.5" x="9.625" y="1.375" fill="#FAB908" transform="rotate(180 11 2.125)"/>
      <circle cx="11" cy="20.625" r="1.375" fill="#FAB908"/>
      <circle cx="11" cy="19.125" r="1.375" fill="#FAB908"/>
      <rect width="2.75" height="1.5" x="9.625" y="19.125" fill="#FAB908" transform="rotate(180 11 19.875)"/>
      <circle cx="15.875" cy="16.25" r="1.375" fill="#34A853"/>
      <circle cx="15.875" cy="11.375" r="1.375" fill="#34A853"/>
      <rect width="2.75" height="4.875" x="14.5" y="11.375" fill="#34A853" transform="rotate(180 15.875 13.813)"/>
      <circle cx="11" cy="7" r="1.375" fill="#FAB908"/>
      <circle cx="11" cy="15" r="1.375" fill="#FAB908"/>
    </g>
    <g transform="translate(29 4)">
      <polygon points="0 0 100 0 100 15 0 15"/>
      <path fill="#F9F9F9" fill-rule="nonzero" d="M49.3581197 11.25L48.1 11.25 48.1 1.70333334 51.4367521 1.70333334C52.2663859 1.70333334 52.9843275 1.97221953 53.5905982 2.51 54.1968691 3.04778046 54.5 3.72555147 54.5 4.54333333 54.5 5.3611152 54.1968691 6.0388862 53.5905982 6.57666666 52.9843275 7.11444714 52.2663859 7.38333333 51.4367521 7.38333333L49.3581197 7.38333333 49.3581197 11.25zM49.3581197 6.21L51.4641025 6.21C51.9928801 6.21 52.4168075 6.0366684 52.7358975 5.69 53.0549874 5.3433316 53.2145299 4.9611132 53.2145299 4.54333333 53.2145299 4.12555347 53.0549874 3.74333507 52.7358975 3.39666666 52.4168075 3.04999827 51.9928801 2.87666667 51.4641025 2.87666667L49.3581197 2.87666667 49.3581197 6.21zM55.5431624 5.50333333C56.1904591 4.83666333 57.0155221 4.50333333 58.018376 4.50333333 59.0212301 4.50333333 59.8462931 4.83444114 60.4935898 5.49666666 61.1408864 6.1588922 61.4645299 6.9877728 61.4645299 7.98333333 61.4645299 8.97889386 61.1408864 9.80777447 60.4935898 10.47 59.8462931 11.1322256 59.0212301 11.4633333 58.018376 11.4633333 57.0155221 11.4633333 56.1904591 11.1322256 55.5431624 10.47 54.8958657 9.80777447 54.5722222 8.97889386 54.5722222 7.98333333 54.5722222 6.9877728 54.8958657 6.1611144 55.5431624 5.50333333zM56.4730769 9.70333333C56.9106859 10.1300021 57.4257805 10.3433333 58.018376 10.3433333 58.6109716 10.3433333 59.123787 10.1277799 59.5568376 9.69666666 59.9898882 9.2655534 60.2064102 8.694448 60.2064102 7.98333333 60.2064102 7.27221867 59.9898882 6.70111326 59.5568376 6.27 59.123787 5.83888674 58.6109716 5.62333333 58.018376 5.62333333 57.4257805 5.62333333 56.9129652 5.83888674 56.4799145 6.27 56.046864 6.70111326 55.8303419 7.27221867 55.8303419 7.98333333 55.8303419 8.694448 56.0445847 9.2677756 56.4730769 9.70333333zM65.2564102 11.4633333C64.390309 11.4633333 63.6427382 11.1300033 63.0136752 10.4633333 62.3846122 9.79666333 62.0700855 8.97000493 62.0700855 7.98333333 62.0700855 6.99666174 62.3846122 6.17000334 63.0136752 5.50333333 63.6427382 4.83666333 64.390309 4.50333333 65.2564102 4.50333333 65.7669541 4.50333333 66.2250692 4.60999893 66.6307692 4.82333334 67.0364692 5.03666773 67.3396001 5.30333173 67.540171 5.62333333L67.5948718 5.62333333 67.540171 4.71666666 67.540171 1.70333334 68.7982905 1.70333334 68.7982905 11.25 67.5948718 11.25 67.5948718 10.3433333 67.540171 10.3433333C67.3396001 10.6633349 67.0364692 10.9299989 66.6307692 11.1433333 66.2250692 11.3566678 65.7669541 11.4633333 65.2564102 11.4633333zM65.4615385 10.3433333C66.0541341 10.3433333 66.5578326 10.1300021 66.9726496 9.70333333 67.3874665 9.27666453 67.5948718 8.70333693 67.5948718 7.98333333 67.5948718 7.26332973 67.3874665 6.69000213 66.9726496 6.26333334 66.5578326 5.83666453 66.0541341 5.62333333 65.4615385 5.62333333 64.8780598 5.62333333 64.3766402 5.83888674 63.9572649 6.27 63.5378897 6.70111326 63.3282052 7.27221867 63.3282052 7.98333333 63.3282052 8.694448 63.5378897 9.2655534 63.9572649 9.69666666 64.3766402 10.1277799 64.8780598 10.3433333 65.4615385 10.3433333zM73.1645299 11.4633333C72.1616759 11.4633333 71.336613 11.1322256 70.6893163 10.47 70.0420196 9.80777447 69.718376 8.97889386 69.718376 7.98333333 69.718376 6.9877728 70.0420196 6.1588922 70.6893163 5.49666666 71.336613 4.83444114 72.1616759 4.50333333 73.1645299 4.50333333 73.912112 4.50333333 74.5320488 4.68110934 75.024359 5.03666667 75.5166691 5.392224 75.8767795 5.8411084 76.1047009 6.38333334L74.9559829 6.85C74.6095424 6.03221814 73.9850473 5.62333333 73.0824787 5.62333333 72.5263505 5.62333333 72.0363269 5.84555334 71.6123932 6.29 71.1884595 6.73444667 70.9764957 7.29888546 70.9764957 7.98333333 70.9764957 8.6677812 71.1884595 9.23222 71.6123932 9.67666667 72.0363269 10.1211133 72.5263505 10.3433333 73.0824787 10.3433333 74.0215146 10.3433333 74.6688016 9.93444853 75.024359 9.11666667L76.1457265 9.58333333C75.9178052 10.1166693 75.5508573 10.5633315 75.0448718 10.9233333 74.5388864 11.2833351 73.912112 11.4633333 73.1645299 11.4633333zM79.1307692 11.4633333C78.4196546 11.4633333 77.8247887 11.2633353 77.3461538 10.8633333 76.867519 10.4633313 76.6282052 9.93444774 76.6282052 9.27666666 76.6282052 8.565552 76.9108234 8.0077798 77.4760684 7.60333333 78.0413134 7.19888687 78.7387423 6.99666666 79.568376 6.99666666 80.3068413 6.99666666 80.9131031 7.12999866 81.3871795 7.39666667L81.3871795 7.21C81.3871795 6.7299976 81.2185202 6.345557 80.8811966 6.05666667 80.543873 5.76777633 80.1290623 5.62333333 79.6367521 5.62333333 79.2720779 5.62333333 78.9415969 5.70777693 78.6452991 5.87666667 78.3490013 6.0455564 78.1461544 6.2766652 78.0367521 6.57L76.8880342 6.09C77.0430208 5.69888694 77.3484308 5.33666833 77.8042735 5.00333333 78.2601163 4.66999833 78.8618197 4.50333333 79.6094018 4.50333333 80.466386 4.50333333 81.17749 4.74777534 81.7427351 5.23666667 82.30798 5.725558 82.5905982 6.41444 82.5905982 7.30333333L82.5905982 11.25 81.3871795 11.25 81.3871795 10.3433333 81.3324787 10.3433333C80.8310516 11.0900038 80.0971558 11.4633333 79.1307692 11.4633333zM79.3358975 10.3433333C79.8555581 10.3433333 80.3273484 10.1544463 80.7512821 9.77666667 81.1752158 9.398887 81.3871795 8.9522248 81.3871795 8.43666666 81.0316222 8.1522208 80.4982942 8.01 79.7871795 8.01 79.1763502 8.01 78.7159559 8.1388876 78.4059829 8.39666667 78.0960099 8.65444573 77.9410256 8.95666494 77.9410256 9.30333333 77.9410256 9.62333493 78.0823347 9.87666573 78.3649573 10.0633333 78.6475798 10.2500009 78.9712233 10.3433333 79.3358975 10.3433333zM86.2730769 11.4633333C85.5254948 11.4633333 84.9078371 11.2855573 84.4200855 10.93 83.9323337 10.5744427 83.5745025 10.1300027 83.3465812 9.59666667L84.4679487 9.14333334C84.823506 9.9611152 85.4297678 10.37 86.2867521 10.37 86.6787769 10.37 87.0001412 10.2855564 87.2508547 10.1166667 87.5015682 9.94777693 87.6269231 9.72555693 87.6269231 9.45 87.6269231 9.0233312 87.3215131 8.7344452 86.7106837 8.58333333L85.3568376 8.26333333C84.9283454 8.15666613 84.5226515 7.95444594 84.1397436 7.65666666 83.7568357 7.3588874 83.5653846 6.9566692 83.5653846 6.45 83.5653846 5.87221933 83.8274902 5.40333513 84.3517095 5.04333333 84.8759286 4.68333153 85.4981445 4.50333333 86.218376 4.50333333 86.8109716 4.50333333 87.3397413 4.63444314 87.8047009 4.89666666 88.2696604 5.1588902 88.6024207 5.534442 88.8029914 6.02333334L87.7089744 6.46333333C87.4628192 5.88555267 86.9522831 5.59666667 86.1773504 5.59666667 85.8035593 5.59666667 85.4890326 5.67222147 85.2337607 5.82333333 84.9784888 5.9744452 84.8508547 6.1788876 84.8508547 6.43666667 84.8508547 6.81000186 85.147148 7.06333266 85.7397436 7.19666667L87.0662393 7.50333333C87.6953023 7.64555627 88.1602549 7.88999826 88.4611111 8.23666667 88.7619674 8.58333507 88.9123932 8.97444227 88.9123932 9.41 88.9123932 9.9966696 88.6662418 10.4855536 88.1739316 10.8766667 87.6816214 11.2677797 87.0480096 11.4633333 86.2730769 11.4633333zM92.6769231 11.3566667C91.9749253 11.3566667 91.4393181 11.1744463 91.0700855 10.81 90.7008529 10.4455537 90.5162393 9.93000333 90.5162393 9.26333334L90.5162393 5.83666667 89.340171 5.83666667 89.340171 4.71666667 90.5162393 4.71666667 90.5162393 2.71666667 91.774359 2.71666667 91.774359 4.71666667 93.4153846 4.71666667 93.4153846 5.83666667 91.774359 5.83666667 91.774359 9.17C91.774359 9.88111467 92.0752107 10.2366667 92.6769231 10.2366667 92.9048444 10.2366667 93.0962955 10.2011115 93.2512821 10.13L93.6888889 11.1833334C93.4153833 11.2988895 93.0780647 11.3566667 92.6769231 11.3566667zM97.084188 11.4633333C96.3366059 11.4633333 95.7189484 11.2855573 95.2311966 10.93 94.7434448 10.5744427 94.3856136 10.1300027 94.1576923 9.59666667L95.2790598 9.14333334C95.6346171 9.9611152 96.2408789 10.37 97.0978633 10.37 97.489888 10.37 97.8112523 10.2855564 98.0619658 10.1166667 98.3126793 9.94777693 98.4380342 9.72555693 98.4380342 9.45 98.4380342 9.0233312 98.1326242 8.7344452 97.5217948 8.58333333L96.1679487 8.26333333C95.7394566 8.15666613 95.3337626 7.95444594 94.9508547 7.65666666 94.5679468 7.3588874 94.3764957 6.9566692 94.3764957 6.45 94.3764957 5.87221933 94.6386013 5.40333513 95.1628205 5.04333333 95.6870397 4.68333153 96.3092556 4.50333333 97.0294871 4.50333333 97.6220827 4.50333333 98.1508524 4.63444314 98.615812 4.89666666 99.0807715 5.1588902 99.4135318 5.534442 99.6141025 6.02333334L98.5200855 6.46333333C98.2739304 5.88555267 97.7633942 5.59666667 96.9884615 5.59666667 96.6146705 5.59666667 96.3001437 5.67222147 96.0448718 5.82333333 95.7895999 5.9744452 95.6619658 6.1788876 95.6619658 6.43666667 95.6619658 6.81000186 95.9582591 7.06333266 96.5508547 7.19666667L97.8773504 7.50333333C98.5064134 7.64555627 98.971366 7.88999826 99.2722222 8.23666667 99.5730785 8.58333507 99.7235043 8.97444227 99.7235043 9.41 99.7235043 9.9966696 99.4773529 10.4855536 98.9850427 10.8766667 98.4927325 11.2677797 97.8591207 11.4633333 97.084188 11.4633333zM.320512821 5.98958334C.320512821 2.96875 2.91666667.520833333 6.01495726.520833333 7.72435898.520833333 8.94230769 1.17708333 9.86111111 2.03125L8.77136752 3.08333334C8.11965812 2.47916667 7.23290598 2.01041667 6.01495726 2.01041667 3.76068376 2.01041667 1.99786325 3.78125 1.99786325 5.97916667 1.99786325 8.17708333 3.76068376 9.94791666 6.01495726 9.94791666 7.47863248 9.94791666 8.31196581 9.375 8.84615385 8.85416667 9.28418803 8.42708334 9.57264957 7.8125 9.67948718 6.97916667L6.01495726 6.97916667 6.01495726 5.48958333 11.1752136 5.48958333C11.2286325 5.76041667 11.2606837 6.07291667 11.2606837 6.42708333 11.2606837 7.55208333 10.9508547 8.9375 9.93589744 9.91666667 8.94230769 10.9166667 7.68162393 11.4479166 6.01495726 11.4479166 2.91666667 11.4479166.320512821 9 .320512821 5.98958334zM15.3739316 4.47916667C17.3717948 4.47916667 18.9957265 5.95833333 18.9957265 8 18.9957265 10.03125 17.3717948 11.5208334 15.3739316 11.5208334 13.3760684 11.5208334 11.7521367 10.03125 11.7521367 8 11.7521367 5.95833333 13.3760684 4.47916667 15.3739316 4.47916667zM15.3739316 10.125C16.4636752 10.125 17.4145299 9.25 17.4145299 7.98958333 17.4145299 6.71875 16.4636752 5.85416667 15.3739316 5.85416667 14.2735043 5.85416667 13.3333333 6.71875 13.3333333 7.98958333 13.3333333 9.25 14.284188 10.125 15.3739316 10.125zM23.2799145 4.47916667C25.2777778 4.47916667 26.9017095 5.95833333 26.9017095 8 26.9017095 10.03125 25.2777778 11.5208334 23.2799145 11.5208334 21.2820513 11.5208334 19.6581197 10.03125 19.6581197 8 19.6581197 5.95833333 21.2820513 4.47916667 23.2799145 4.47916667zM23.2799145 10.125C24.3696581 10.125 25.3205129 9.25 25.3205129 7.98958333 25.3205129 6.71875 24.3803419 5.85416667 23.2799145 5.85416667 22.1794871 5.85416667 21.2393163 6.71875 21.2393163 7.98958333 21.2393163 9.25 22.190171 10.125 23.2799145 10.125zM32.9807692 4.59375L34.4978633 4.59375 34.4978633 10.9166667C34.4978633 13.5208333 32.9273504 14.5833333 31.068376 14.5833333 29.3162393 14.5833333 28.258547 13.4375 27.8632479 12.5L29.241453 11.9375C29.4871795 12.5104167 30.0854701 13.1875 31.0576923 13.1875 32.2435898 13.1875 32.9807692 12.46875 32.9807692 11.125L32.9807692 10.6145833 32.9273504 10.6145833C32.5747864 11.0416667 31.8910256 11.4166667 31.025641 11.4166667 29.2200855 11.4166667 27.5641025 9.875 27.5641025 7.90625 27.5641025 5.91666666 29.2200855 4.375 31.025641 4.375 31.8910256 4.375 32.5747864 4.75 32.9273504 5.16666666L32.9807692 5.16666666 32.9807692 4.59375zM31.1645299 10.03125C32.2435898 10.03125 33.0982905 9.14583333 33.0876068 7.90625 33.0876068 6.66666666 32.2435898 5.76041667 31.1645299 5.76041667 30.0747864 5.76041667 29.1559829 6.66666666 29.1559829 7.90625 29.1559829 9.13541667 30.0747864 10.03125 31.1645299 10.03125zM35.5769231 11.28125L35.5769231.9375 37.1581197.9375 37.1581197 11.28125 35.5769231 11.28125zM41.5064102 10.125C42.318376 10.125 42.8739316 9.73958334 43.2905982 9.15625L44.5192308 9.95833333C44.1132479 10.53125 43.1623932 11.5208334 41.5064102 11.5208334 39.4551282 11.5208334 37.9273504 9.96875 37.9273504 8 37.9273504 5.90625 39.4764957 4.47916667 41.3354701 4.47916667 43.2051282 4.47916667 44.1239316 5.92708333 44.4230769 6.71875L44.5833333 7.11458334 39.7542735 9.0625C40.1282052 9.76041666 40.6944444 10.125 41.5064102 10.125zM41.3888889 5.83333333C40.5769231 5.83333333 39.4551282 6.53125 39.4978633 7.88541666L42.724359 6.58333333C42.5534188 6.13541667 42.0192308 5.83333333 41.3888889 5.83333333z"/>
    </g>
  </g>
</svg>
